<svg width="29" height="24" viewBox="0 0 29 24" fill="none" xmlns="http://www.w3.org/2000/svg">
<g filter="url(#filter0_d_1_1299)">
<path d="M6.09155 0.485229H22.0916C22.5302 0.485229 22.9544 0.649019 23.2927 0.946167L23.4324 1.08191C23.7895 1.46499 23.9919 1.98656 23.9919 2.53113V13.2567C23.9919 13.8012 23.7895 14.322 23.4324 14.705C23.0754 15.0877 22.5931 15.3016 22.0916 15.3016H6.09155C5.65281 15.3016 5.22868 15.1379 4.89038 14.8407L4.75073 14.705C4.39364 14.322 4.19125 13.8012 4.19116 13.2567V2.53113C4.19116 2.05474 4.34601 1.59606 4.62378 1.2323L4.75073 1.08191C5.10766 0.699207 5.59009 0.485229 6.09155 0.485229ZM5.99194 13.3563H22.1912V2.43054H5.99194V13.3563ZM15.0916 7.99402H20.0916C20.3279 7.99402 20.5559 8.09454 20.7253 8.27625C20.8948 8.45808 20.9918 8.70579 20.9919 8.9657C20.9919 9.2258 20.895 9.47419 20.7253 9.65613C20.5559 9.83783 20.3279 9.93835 20.0916 9.93835H15.0916C14.8552 9.93835 14.6272 9.83783 14.4578 9.65613C14.2881 9.47419 14.1912 9.2258 14.1912 8.9657C14.1913 8.70579 14.2883 8.45808 14.4578 8.27625C14.6272 8.09454 14.8552 7.99402 15.0916 7.99402ZM15.0916 4.77625H20.0916C20.2983 4.77625 20.4986 4.85312 20.6589 4.99402L20.7253 5.05847C20.8949 5.24041 20.9919 5.48882 20.9919 5.7489C20.9918 6.00881 20.8948 6.25653 20.7253 6.43835C20.5559 6.62006 20.3279 6.72058 20.0916 6.72058H15.0916C14.8552 6.72058 14.6272 6.62006 14.4578 6.43835C14.2883 6.25653 14.1913 6.00881 14.1912 5.7489C14.1912 5.52144 14.2653 5.30265 14.3972 5.12976L14.4578 5.05847C14.6272 4.87677 14.8552 4.77625 15.0916 4.77625Z" fill="#181725" stroke="white" stroke-width="0.2"/>
<g clip-path="url(#clip0_1_1299)">
<path d="M10.8418 5.58134V6.14404C10.8418 6.44845 10.7042 6.73442 10.4657 6.93736C10.2181 7.14953 9.89702 7.26945 9.55764 7.26945C9.21826 7.26945 8.88805 7.14953 8.64957 6.93736C8.41109 6.73442 8.2735 6.44845 8.2735 6.14404V5.58134C8.2735 5.28615 8.41109 5.00019 8.64957 4.78802C8.88805 4.57585 9.21826 4.45593 9.55764 4.45593C9.89702 4.45593 10.2181 4.57585 10.4657 4.78802C10.7042 5.00019 10.8418 5.28615 10.8418 5.58134Z" fill="#181725"/>
<path d="M11.8049 8.90212V9.36335C11.8049 9.58475 11.6949 9.80614 11.5206 9.96296C11.3371 10.1198 11.0895 10.212 10.8418 10.212H8.27353C8.0167 10.212 7.76905 10.1198 7.59477 9.96296C7.41132 9.80614 7.31042 9.58475 7.31042 9.36335V8.87445C7.31042 8.56081 7.42049 8.24717 7.62229 7.98888C7.82408 7.73059 8.10843 7.52765 8.43864 7.40773C8.4845 7.39851 8.52119 7.38928 8.56705 7.38928C8.61291 7.38928 8.6496 7.39851 8.69546 7.40773H10.3373C10.3557 7.40773 10.3648 7.40773 10.374 7.41696C10.374 7.40773 10.3832 7.40773 10.3832 7.40773C10.53 7.39851 10.6217 7.40773 10.6309 7.40773C10.9794 7.52765 11.2729 7.73059 11.4839 7.99811C11.6857 8.26562 11.8049 8.57926 11.8049 8.90212Z" fill="#181725"/>
</g>
</g>
<defs>
<filter id="filter0_d_1_1299" x="0.0915527" y="0.38562" width="28" height="23.0159" filterUnits="userSpaceOnUse" color-interpolation-filters="sRGB">
<feFlood flood-opacity="0" result="BackgroundImageFix"/>
<feColorMatrix in="SourceAlpha" type="matrix" values="0 0 0 0 0 0 0 0 0 0 0 0 0 0 0 0 0 0 127 0" result="hardAlpha"/>
<feOffset dy="4"/>
<feGaussianBlur stdDeviation="2"/>
<feComposite in2="hardAlpha" operator="out"/>
<feColorMatrix type="matrix" values="0 0 0 0 0 0 0 0 0 0 0 0 0 0 0 0 0 0 0.25 0"/>
<feBlend mode="normal" in2="BackgroundImageFix" result="effect1_dropShadow_1_1299"/>
<feBlend mode="normal" in="SourceGraphic" in2="effect1_dropShadow_1_1299" result="shape"/>
</filter>
<clipPath id="clip0_1_1299">
<rect width="6" height="7.68429" fill="white" transform="translate(7.09155 4.45593)"/>
</clipPath>
</defs>
</svg>
